# xmcd CD database file
#
# Track frame offsets:
#	150
#	12590
#	23348
#	40196
#	54898
#	67946
#	80131
#	90758
#	104452
#	121481
#	137319
#	148529
#	165181
#	184203
#	203552
#
# Disc length: 2899 seconds
#
# Revision: 0
# Processed by: cddbd v1.5.2PL0 Copyright (c) Steve Scherf et al.
# Submitted via: CDex 1.50
#
DISCID=b10b510f
DTITLE=Анатолий Кролл - День полнолуния. Музыка к к/ф К. Шахназарова
DYEAR=1900
DGENRE=Jazz
TTITLE0=День Полнолуния
TTITLE1=Я буду играть джаз
TTITLE2=Улыбка старой Москвы
TTITLE3=Джангл
TTITLE4=Танец гаучо
TTITLE5=Сны
TTITLE6=Старый рояль
TTITLE7=Зимний вечер в Гаграх
TTITLE8=Моя добрая старая развалина
TTITLE9=Прости-прощай, Одесса-мама
TTITLE10=Дружба
TTITLE11=Блюз старого Арбата
TTITLE12=Новелла
TTITLE13=Спасибо, музыка, тебе
TTITLE14=Эпилог
EXTD=
EXTT0=
EXTT1=
EXTT2=
EXTT3=
EXTT4=
EXTT5=
EXTT6=
EXTT7=
EXTT8=
EXTT9=
EXTT10=
EXTT11=
EXTT12=
EXTT13=
EXTT14=
PLAYORDER=
